<?xml version="1.0" standalone="no"?>
<!DOCTYPE svg PUBLIC "-//W3C//DTD SVG 20010904//EN"
 "http://www.w3.org/TR/2001/REC-SVG-20010904/DTD/svg10.dtd">
<svg version="1.0" xmlns="http://www.w3.org/2000/svg"
 width="200.000000pt" height="200.000000pt" viewBox="0 0 200.000000 200.000000"
 preserveAspectRatio="xMidYMid meet">

<g transform="translate(0.000000,200.000000) scale(0.100000,-0.100000)"
fill="#000000" stroke="none">
<path d="M970 1780 l0 -80 55 0 c30 0 55 4 55 9 0 11 -25 21 -56 21 -14 0 -24
6 -24 14 0 15 21 26 51 26 29 0 22 18 -8 22 -40 4 -36 32 5 36 41 4 41 18 1
26 -78 15 -79 15 -79 -74z"/>
<path d="M817 1843 c-21 -2 -40 -10 -42 -16 -7 -18 29 -152 40 -152 6 0 11 15
13 33 4 38 20 41 52 7 21 -23 50 -34 50 -19 0 3 -9 19 -20 34 -14 20 -18 37
-14 59 7 32 -9 62 -30 59 -6 -1 -28 -3 -49 -5z m48 -42 c3 -6 -4 -15 -16 -22
-17 -9 -23 -8 -30 2 -4 7 -5 17 -3 21 7 11 42 10 49 -1z"/>
<path d="M1173 1829 c-34 -12 -30 -53 7 -81 17 -12 30 -28 30 -35 0 -21 -36
-15 -53 10 -11 16 -18 19 -26 11 -16 -15 15 -50 51 -58 20 -5 33 -1 48 14 28
28 25 45 -15 76 -25 18 -33 30 -26 37 7 7 16 5 29 -6 19 -18 42 -23 42 -9 -1
29 -53 54 -87 41z"/>
<path d="M630 1783 c-19 -8 -36 -16 -38 -17 -2 -3 57 -135 64 -145 2 -2 10 -1
19 2 12 5 13 11 3 32 -10 22 -8 27 15 46 30 23 35 59 11 83 -19 19 -28 19 -74
-1z m58 -40 c5 -17 -26 -29 -40 -15 -6 6 -7 15 -3 22 9 14 37 9 43 -7z"/>
<path d="M1318 1755 c-10 -22 -8 -29 17 -55 17 -18 25 -35 21 -45 -8 -21 -28
-15 -41 13 -11 25 -35 30 -35 7 0 -25 38 -55 70 -55 52 0 64 55 20 95 -11 10
-20 22 -20 27 0 14 30 9 36 -7 8 -19 34 -20 34 -1 0 18 -43 46 -70 46 -12 0
-25 -10 -32 -25z"/>
<path d="M502 1718 c-6 -6 -8 -24 -5 -41 6 -29 5 -30 -25 -24 -18 4 -39 4 -48
0 -12 -5 -5 -11 27 -23 40 -16 44 -21 54 -66 8 -37 13 -45 20 -34 5 8 8 23 6
34 -4 24 18 37 41 25 12 -6 24 -6 36 0 14 8 10 13 -30 31 -45 20 -48 23 -48
60 0 42 -10 56 -28 38z"/>
<path d="M1552 1638 c6 -18 28 -21 28 -4 0 9 -7 16 -16 16 -9 0 -14 -5 -12
-12z"/>
<path d="M865 1623 c-107 -22 -258 -100 -330 -170 -81 -78 -92 -93 -71 -93 9
0 16 7 16 15 0 8 5 15 10 15 18 0 11 -26 -13 -48 -27 -26 -42 -28 -33 -7 10
26 -8 16 -32 -18 -22 -32 -14 -50 12 -28 10 9 15 8 20 -5 9 -22 -3 -37 -19
-24 -7 6 -20 8 -28 4 -20 -7 -50 -52 -42 -64 3 -5 -2 -13 -12 -19 -13 -7 -17
-21 -17 -50 1 -27 -3 -41 -11 -41 -24 0 -49 -158 -42 -272 15 -265 141 -489
356 -629 69 -46 101 -59 101 -41 0 4 7 65 16 137 27 229 54 499 54 538 0 25
-4 37 -14 37 -8 0 -16 -6 -19 -12 -2 -7 -7 -10 -11 -7 -4 4 -1 18 5 33 11 23
10 28 -7 41 -19 14 -19 14 2 15 12 0 26 -10 33 -22 6 -13 9 -15 7 -5 -3 9 -1
17 4 17 6 0 10 7 10 16 0 10 -5 14 -15 10 -10 -4 -19 2 -24 18 -7 18 -16 22
-41 21 -17 -1 -33 1 -35 6 -6 8 42 22 54 15 4 -3 3 10 -3 29 -8 27 -16 35 -34
35 -39 0 -61 20 -51 47 5 14 5 23 -1 23 -6 0 -10 -4 -10 -10 0 -5 -4 -10 -10
-10 -5 0 -10 9 -10 20 0 19 14 25 48 21 6 -1 12 3 12 9 0 6 -14 8 -37 4 -21
-3 -48 -6 -61 -7 -12 -1 -27 -9 -32 -17 -5 -8 -13 -11 -17 -6 -4 4 2 16 15 27
26 20 22 39 -8 39 -13 0 -17 -5 -13 -20 4 -16 0 -20 -17 -20 -17 0 -21 4 -15
18 5 14 4 15 -6 5 -19 -19 -36 -16 -42 6 -6 23 8 30 51 27 25 -2 32 2 32 16 0
10 3 18 8 18 4 0 8 12 9 27 l1 27 -16 -26 c-19 -32 -42 -40 -65 -23 -19 14
-12 26 9 18 10 -4 12 0 8 12 -6 14 -3 16 14 10 13 -4 22 -2 22 4 0 6 7 11 15
11 14 0 19 23 18 68 -1 7 13 16 29 19 19 4 37 17 47 34 17 31 30 36 49 17 17
-17 15 -41 -2 -35 -12 5 -32 -20 -23 -29 9 -9 46 11 57 32 8 13 16 22 18 19 3
-3 11 0 19 7 7 6 17 8 21 4 4 -4 -1 -12 -11 -17 -9 -6 -15 -14 -12 -19 8 -13
35 0 35 17 0 11 7 14 25 10 14 -2 23 -2 20 1 -2 3 0 11 7 19 8 11 7 17 -8 28
-18 14 -18 14 8 15 25 0 27 3 30 47 3 53 5 54 108 71 l55 9 -50 1 c-27 0 -81
-6 -120 -15z m-465 -404 c0 -10 -4 -19 -9 -19 -15 0 -23 18 -11 25 6 4 7 11 4
17 -4 7 -2 8 4 4 7 -4 12 -16 12 -27z m47 -75 c-9 -9 -28 6 -21 18 4 6 10 6
17 -1 6 -6 8 -13 4 -17z m-92 -5 c-10 -15 -25 -10 -19 6 4 8 10 12 15 9 5 -3
7 -10 4 -15z m135 1 c0 -5 -2 -10 -4 -10 -3 0 -8 5 -11 10 -3 6 -1 10 4 10 6
0 11 -4 11 -10z m83 -30 c-3 -11 -9 -20 -14 -20 -11 0 -11 3 -3 24 9 23 23 20
17 -4z m42 10 c3 -6 -1 -13 -10 -16 -19 -8 -30 0 -20 15 8 14 22 14 30 1z
m-41 -49 c11 -1 16 -4 12 -8 -12 -12 -76 -9 -76 3 0 6 10 10 23 8 12 -1 31 -3
41 -3z m156 -30 c0 -14 -18 -23 -30 -16 -6 4 -8 11 -5 16 8 12 35 12 35 0z
m-330 -15 c0 -3 -4 -8 -10 -11 -5 -3 -10 -1 -10 4 0 6 5 11 10 11 6 0 10 -2
10 -4z m255 -36 c3 -6 -1 -7 -9 -4 -18 7 -21 14 -7 14 6 0 13 -4 16 -10z"/>
<path d="M1161 1583 c6 -21 12 -45 15 -53 3 -8 5 -17 5 -20 1 -14 31 -19 48
-8 15 9 17 15 9 25 -12 15 0 17 22 3 8 -5 11 -12 7 -16 -4 -4 -2 -14 5 -21 9
-11 9 -17 -3 -24 -11 -7 -10 -9 5 -9 13 0 17 -5 13 -20 -3 -12 1 -25 11 -33
21 -15 42 -52 42 -72 0 -8 8 -15 19 -15 13 0 19 -7 19 -25 0 -14 7 -32 17 -39
13 -9 15 -15 7 -20 -7 -4 -12 -14 -12 -22 0 -11 6 -13 21 -9 18 6 20 4 15 -13
-8 -23 12 -25 37 -4 13 11 15 8 15 -23 0 -19 -4 -38 -9 -41 -19 -11 -9 -25 11
-14 14 7 20 7 20 0 0 -5 11 -10 24 -10 37 0 49 -22 37 -67 -6 -21 -11 -50 -11
-65 0 -16 -1 -28 -2 -28 -2 0 -25 7 -53 15 l-50 15 27 -24 c14 -13 28 -32 31
-42 4 -17 6 -17 12 4 8 26 30 29 39 6 8 -22 8 -24 -6 -24 -7 0 -24 -9 -38 -20
-31 -24 -40 -25 -41 -2 0 13 -3 12 -11 -5 -9 -18 -20 -23 -50 -23 -21 0 -38
-5 -38 -11 0 -5 4 -8 8 -5 5 3 18 -2 30 -10 l21 -15 -20 -20 c-23 -23 -29 -21
-32 10 -1 21 -22 35 -37 26 -5 -3 -7 -12 -3 -20 3 -10 -2 -15 -16 -15 -12 0
-21 -5 -21 -11 0 -7 10 -9 25 -6 18 3 30 -2 40 -15 7 -11 18 -17 24 -13 6 3
11 -1 11 -9 0 -11 -6 -13 -30 -6 -16 5 -29 5 -29 2 5 -33 -3 -42 -34 -39 -22
1 -34 7 -34 18 -1 12 5 15 23 11 19 -3 23 -1 18 12 -3 9 -15 16 -25 16 -20 0
-26 16 -9 22 6 2 1 9 -10 16 -18 11 -20 10 -20 -13 0 -14 4 -25 10 -25 5 0 7
-12 4 -27 -6 -34 39 -559 49 -569 8 -9 67 25 137 78 171 130 280 336 297 561
5 71 3 91 -8 98 -10 6 -10 9 -1 9 31 0 -2 173 -56 292 -16 36 -48 92 -70 124
-53 78 -156 178 -175 171 -9 -3 -19 4 -25 18 -6 13 -24 31 -40 39 -28 15 -30
14 -36 -7 -4 -17 -8 -19 -18 -9 -10 10 -10 15 2 22 21 13 6 25 -73 55 -93 34
-98 34 -86 -12z m29 7 c0 -5 -5 -10 -11 -10 -5 0 -7 5 -4 10 3 6 8 10 11 10 2
0 4 -4 4 -10z m20 -39 c0 -5 3 -17 7 -27 4 -11 2 -15 -7 -12 -20 6 -33 48 -15
48 8 0 15 -4 15 -9z m170 -166 c0 -8 -7 -15 -15 -15 -26 0 -18 20 13 29 1 1 2
-6 2 -14z m114 -51 c11 -28 6 -39 -9 -20 -8 11 -15 23 -15 28 0 14 18 9 24 -8z
m83 -16 c-3 -8 -6 -5 -6 6 -1 11 2 17 5 13 3 -3 4 -12 1 -19z m-157 -38 c0 -5
-4 -10 -10 -10 -5 0 -10 5 -10 10 0 6 5 10 10 10 6 0 10 -4 10 -10z m50 -26
c0 -8 -7 -14 -15 -14 -8 0 -18 0 -22 0 -5 0 -8 6 -8 13 0 6 6 11 13 10 6 -2
12 2 12 8 0 5 5 7 10 4 6 -3 10 -13 10 -21z m80 -79 c0 -2 -9 -9 -20 -15 -16
-9 -20 -8 -20 5 0 8 9 15 20 15 11 0 20 -2 20 -5z m40 -64 c0 -6 -4 -13 -10
-16 -5 -3 -10 1 -10 9 0 9 5 16 10 16 6 0 10 -4 10 -9z m56 -18 c-7 -7 -26 7
-26 19 0 6 6 6 15 -2 9 -7 13 -15 11 -17z m-21 -53 c-3 -5 -10 -10 -14 -10
-10 0 -21 37 -14 44 9 8 35 -23 28 -34z m-5 -56 c0 -7 -9 -14 -20 -17 -23 -6
-28 21 -8 41 13 13 28 0 28 -24z m-20 -131 c-1 -27 -1 -27 -15 -9 -19 25 -19
36 0 36 10 0 15 -10 15 -27z m-51 -18 c-3 -2 -16 -6 -30 -8 -23 -4 -41 -37
-20 -37 6 0 11 -4 11 -9 0 -6 -12 -9 -27 -8 -38 3 -40 48 -3 58 30 8 75 11 69
4z m81 -47 c0 -4 -5 -10 -12 -14 -12 -8 -40 24 -32 37 5 9 44 -11 44 -23z
m-123 -51 c6 2 14 -1 18 -6 3 -6 3 -11 -2 -12 -4 0 -16 -2 -25 -4 -10 -2 -18
1 -18 6 0 5 -7 9 -15 9 -16 0 -20 12 -8 23 3 4 13 1 22 -7 9 -7 21 -11 28 -9z
m73 13 c0 -5 -4 -10 -9 -10 -6 0 -13 5 -16 10 -3 6 1 10 9 10 9 0 16 -4 16
-10z m-150 -70 c0 -5 -9 -8 -20 -7 -22 1 -27 13 -7 20 14 5 27 -1 27 -13z"/>
<path d="M327 1559 c-20 -23 -35 -45 -32 -48 2 -4 31 -28 64 -54 l59 -47 31
42 c35 47 32 70 -5 33 -28 -29 -37 -30 -53 -11 -8 10 -6 19 9 39 27 34 10 44
-19 11 -21 -24 -41 -25 -41 -2 0 7 10 22 22 35 15 16 19 26 11 34 -7 7 -21 -2
-46 -32z"/>
<path d="M1515 1554 c-18 -44 -18 -49 -2 -62 9 -8 27 -2 67 24 30 18 54 38 53
43 -2 6 4 8 12 5 8 -4 15 -1 15 5 0 18 -23 13 -63 -14 -42 -29 -60 -25 -51 11
10 38 -14 29 -31 -12z"/>
<path d="M1633 1465 c-27 -27 -33 -40 -28 -57 11 -37 32 -52 70 -52 28 0 42 7
60 30 33 40 31 61 -2 29 -54 -50 -112 -40 -98 18 5 20 15 28 41 33 19 3 41 3
50 0 10 -4 14 -2 11 6 -2 7 -10 12 -16 11 -6 -2 -11 2 -11 7 0 22 -44 8 -77
-25z"/>
<path d="M1190 1461 c0 -5 7 -14 15 -21 12 -10 15 -10 15 3 0 8 -7 17 -15 21
-8 3 -15 2 -15 -3z"/>
<path d="M598 1381 c-19 -19 -24 -41 -9 -41 12 0 25 19 28 43 3 21 3 21 -19
-2z"/>
<path d="M1805 1362 c-6 -4 -16 -19 -23 -35 -6 -15 -28 -35 -47 -44 -47 -23
-26 -30 73 -25 62 3 71 6 61 18 -6 8 -22 14 -35 14 -32 0 -39 17 -18 41 18 20
9 45 -11 31z"/>
<path d="M320 1315 c0 -8 5 -15 10 -15 6 0 10 7 10 15 0 8 -4 15 -10 15 -5 0
-10 -7 -10 -15z"/>
<path d="M610 1284 c0 -15 26 -19 34 -5 3 5 -3 11 -14 14 -13 3 -20 0 -20 -9z"/>
<path d="M214 1276 c23 -18 36 -20 36 -6 0 6 -4 10 -9 10 -5 0 -18 3 -28 6
-16 5 -16 4 1 -10z"/>
<path d="M1324 1278 c-4 -6 -3 -8 4 -4 5 3 12 1 14 -5 2 -7 11 -10 18 -7 11 3
10 8 -7 16 -16 9 -24 9 -29 0z"/>
<path d="M1360 1201 c0 -6 5 -13 10 -16 6 -3 10 1 10 9 0 9 -4 16 -10 16 -5 0
-10 -4 -10 -9z"/>
<path d="M1818 1192 c-43 -2 -78 -7 -78 -11 0 -5 12 -16 26 -26 23 -15 26 -21
20 -56 -3 -21 -2 -39 3 -39 10 0 125 87 129 98 1 4 -3 14 -10 22 -10 11 -32
14 -90 12z m35 -47 c-4 -15 -36 -12 -41 3 -3 9 3 13 19 10 13 -1 23 -7 22 -13z"/>
<path d="M110 1169 c0 -13 21 -33 62 -59 64 -42 73 -45 82 -32 8 13 -32 52
-47 46 -19 -7 -43 24 -30 37 13 13 43 1 43 -17 0 -8 5 -14 10 -14 6 0 10 6 10
14 0 8 9 21 20 29 18 13 12 14 -65 15 -78 0 -85 -1 -85 -19z"/>
<path d="M765 1120 c3 -5 8 -10 11 -10 2 0 4 5 4 10 0 6 -5 10 -11 10 -5 0 -7
-4 -4 -10z"/>
<path d="M685 1100 c3 -5 8 -10 11 -10 2 0 4 5 4 10 0 6 -5 10 -11 10 -5 0 -7
-4 -4 -10z"/>
<path d="M1467 1077 c-3 -8 -2 -19 3 -26 5 -9 9 -7 13 8 6 23 -8 39 -16 18z"/>
<path d="M1497 1056 c-3 -8 1 -17 9 -20 11 -4 13 -13 9 -27 -5 -14 -3 -19 4
-15 13 8 8 69 -6 73 -6 2 -13 -3 -16 -11z"/>
<path d="M76 1018 c-15 -89 -20 -82 72 -92 45 -5 84 -7 87 -5 2 2 5 27 7 54 2
39 0 50 -12 50 -10 0 -16 -12 -18 -32 -2 -25 -8 -33 -22 -33 -14 0 -20 9 -22
35 -4 44 -21 49 -28 9 -8 -45 -36 -38 -32 9 5 49 -24 53 -32 5z"/>
<path d="M1843 1040 c-44 -18 -55 -72 -24 -112 16 -19 27 -24 51 -20 27 4 31
8 28 30 -3 28 -28 43 -28 17 0 -24 -34 -15 -38 10 -3 27 8 41 40 49 36 8 68
-21 61 -57 -6 -32 13 -44 27 -16 13 24 5 66 -17 92 -17 18 -63 22 -100 7z"/>
<path d="M1440 1001 c0 -5 5 -13 10 -16 6 -3 10 -2 10 4 0 5 -4 13 -10 16 -5
3 -10 2 -10 -4z"/>
<path d="M1470 910 c0 -5 5 -10 10 -10 6 0 10 5 10 10 0 6 -4 10 -10 10 -5 0
-10 -4 -10 -10z"/>
<path d="M194 871 c-21 -13 -35 -16 -42 -9 -5 5 -25 8 -43 6 l-34 -3 -3 -64
-3 -64 82 6 c45 3 86 10 92 16 15 15 -2 31 -34 31 -37 0 -37 14 1 37 19 11 30
25 30 40 0 28 -6 28 -46 4z m-56 -64 c2 -10 -3 -17 -12 -17 -18 0 -29 16 -21
31 9 14 29 6 33 -14z"/>
<path d="M1315 870 c3 -6 -1 -13 -9 -16 -9 -3 -16 -12 -16 -20 0 -20 16 -17
24 4 3 9 9 23 12 30 3 6 1 12 -6 12 -6 0 -8 -5 -5 -10z"/>
<path d="M1822 805 c3 -64 21 -79 26 -22 4 50 35 49 40 -1 4 -42 26 -37 30 6
5 46 32 43 32 -3 0 -24 5 -35 15 -35 12 0 15 13 15 55 l0 55 -80 0 -81 0 3
-55z"/>
<path d="M1000 635 c0 -30 5 -55 10 -55 6 0 10 25 10 55 0 30 -4 55 -10 55 -5
0 -10 -25 -10 -55z"/>
<path d="M998 443 c-5 -55 0 -85 13 -77 12 7 12 124 0 124 -5 0 -11 -21 -13
-47z"/>
<path d="M995 278 c-10 -24 -1 -123 10 -121 14 4 19 113 6 126 -7 7 -12 5 -16
-5z"/>
</g>
</svg>
